{"title":"The Marine (2006)  m-HD  480p  AC3  Hindi  BHATTI87","uid":6670734,"size":524483051,"categoryP":"video","categoryS":"movies","magnet":"?xt=urn:btih:04117b7c6b78b12b98444190dceaca98122ffb09&amp;dn=The+Marine+%282006%29++m-HD++480p++AC3++Hindi++BHATTI87&amp;tr=udp%3A%2F%2Ftracker.openbittorrent.com%3A80&amp;tr=udp%3A%2F%2Fopen.demonii.com%3A1337&amp;tr=udp%3A%2F%2Ftracker.coppersurfer.tk%3A6969&amp;tr=udp%3A%2F%2Fexodus.desync.com%3A6969","seeders":0,"leechers":0,"uploader":".Dude.","files":-1,"time":1315861861,"description":"The Marine (2006) | m-HD | 480p | AC3 | Hindi | BHATTI87\n\nGeneral\nUnique ID                       : 199579615954252455593524263535507460490 (0x9625A2C815D88FA9B4D2576EA3A0D18A)\nComplete name                   :Marine (2006)  m-HD  480p  AC3  Hindi  BHATTI87\\\\\\\\The Marine (2006)  m-HD  480p  AC3  Hindi  BHATTI87.mkv\nFormat                          : Matroska\nFile size                       : 495 MiB\nDuration                        : 1h 27mn\nOverall bit rate                : 786 Kbps\nEncoded date                    : UTC 2011-09-12 14:24:04\nWriting application             : mkvmerge v4.9.1 (\\\\\\'Ich will\\\\\\') built on Jul 11 2011 23:53:15\nWriting library                 : libebml v1.2.1 + libmatroska v1.1.1\n\nVideo\nID                              : 1\nFormat                          : AVC\nFormat/Info                     : Advanced Video Codec\nFormat profile                  : &lt;a class=&quot;__cf_email__&quot; href=&quot;/cdn-cgi/l/email-protection&quot; data-cfemail=&quot;6f270608072f235c415e&quot;&gt;[email&amp;#160;protected]&lt;/a&gt;&lt;script data-cfhash='f9e31' type=&quot;text/javascript&quot;&gt;\n/* &lt;![CDATA[ */!function(){try{var t=&quot;currentScript&quot;in document?document.currentScript:function(){for(var t=document.getElementsByTagName(&quot;script&quot;),e=t.length;e--;)if(t[e].getAttribute(&quot;data-cfhash&quot;))return t[e]}();if(t&amp;&amp;t.previousSibling){var e,r,n,i,c=t.previousSibling,a=c.getAttribute(&quot;data-cfemail&quot;);if(a){for(e=&quot;&quot;,r=parseInt(a.substr(0,2),16),n=2;a.length-n;n+=2)i=parseInt(a.substr(n,2),16)^r,e+=String.fromCharCode(i);e=document.createTextNode(e),c.parentNode.replaceChild(e,c)}t.parentNode.removeChild(t);}}catch(u){}}()/* ]]&gt; */&lt;/script&gt;\nFormat settings, CABAC          : Yes\nFormat settings, ReFrames       : 5 frames\nCodec ID                        : V_MPEG4/ISO/AVC\nDuration                        : 1h 27mn\nBit rate                        : 657 Kbps\nWidth                           : 848 pixels\nHeight                          : 368 pixels\nDisplay aspect ratio            : 2.35:1\nFrame rate                      : 23.976 fps\nColor space                     : YUV\nChroma subsampling              : 4:2:0\nBit depth                       : 8 bits\nScan type                       : Progressive\nBits/(Pixel*Frame)              : 0.088\nStream size                     : 404 MiB (82%)\nWriting library                 : x264 core 116 r2074 2641b9e\n\n\nAudio\nID                              : 2\nFormat                          : AC-3\nFormat/Info                     : Audio Coding 3\nMode extension                  : CM (complete main)\nCodec ID                        : A_AC3\nDuration                        : 1h 27mn\nBit rate mode                   : Constant\nBit rate                        : 128 Kbps\nChannel(s)                      : 2 channels\nChannel positions               : Front: L R\nSampling rate                   : 44.1 KHz\nBit depth                       : 16 bits\nCompression mode                : Lossy\nDelay relative to video         : 12ms\nStream size                     : 80.5 MiB (16%)\n","torrent":{"xt":"urn:btih:04117b7c6b78b12b98444190dceaca98122ffb09","amp;dn":"The+Marine+%282006%29++m-HD++480p++AC3++Hindi++BHATTI87","amp;tr":["udp%3A%2F%2Ftracker.openbittorrent.com%3A80","udp%3A%2F%2Fopen.demonii.com%3A1337","udp%3A%2F%2Ftracker.coppersurfer.tk%3A6969","udp%3A%2F%2Fexodus.desync.com%3A6969"],"infoHash":"04117b7c6b78b12b98444190dceaca98122ffb09","infoHashBuffer":{"type":"Buffer","data":[4,17,123,124,107,120,177,43,152,68,65,144,220,234,202,152,18,47,251,9]},"announce":[],"urlList":[]}}